<svg viewBox="0 0 100 100" xmlns="http://www.w3.org/2000/svg">
  <!-- shadow -->
  <ellipse cx="50" cy="91" rx="28" ry="4" fill="rgba(0,0,0,0.06)" />
  <!-- rice body -->
  <path d="M 50 8 C 56 8 62 18 68 30 L 84 72 C 88 80 82 88 74 88 L 26 88 C 18 88 12 80 16 72 L 32 30 C 38 18 44 8 50 8 Z" fill="#FFF5E6" stroke="#E8D5C4" stroke-width="1.5" />
  <!-- body highlight -->
  <path d="M 46 14 C 50 12 55 14 58 20" fill="none" stroke="white" stroke-width="3" stroke-linecap="round" opacity="0.5" />
  <!-- nori wrap -->
  <path d="M 16 62 L 84 62 C 86 70 86 78 74 88 L 26 88 C 14 78 14 70 16 62 Z" fill="#2D4A3E" />
  <path d="M 16 62 C 22 58 32 62 40 63 C 48 64 52 61 60 63 C 68 65 78 60 84 62" fill="none" stroke="#3A5C4E" stroke-width="1.5" opacity="0.6" />
  <path d="M 30 68 C 36 66 42 70 50 67 C 55 65 65 68 70 66" fill="none" stroke="#4A705E" stroke-width="1.5" stroke-linecap="round" opacity="0.4" />
  <!-- happy eyes -->
  <path d="M 33 45 Q 36 40 39 45" fill="none" stroke="#1a1a1a" stroke-width="2.5" stroke-linecap="round" />
  <path d="M 61 45 Q 64 40 67 45" fill="none" stroke="#1a1a1a" stroke-width="2.5" stroke-linecap="round" />
  <!-- blush -->
  <ellipse cx="26" cy="51" rx="5" ry="3" fill="#F2C4C4" opacity="0.7" />
  <ellipse cx="74" cy="51" rx="5" ry="3" fill="#F2C4C4" opacity="0.7" />
  <!-- smile -->
  <path d="M 42 56 Q 50 64 58 56" fill="none" stroke="#1a1a1a" stroke-width="2.5" stroke-linecap="round" />
</svg>
